<svg width="400" height="500" viewBox="0 0 400 500" fill="none" xmlns="http://www.w3.org/2000/svg">
  <!-- Background -->
  <rect width="400" height="500" fill="url(#backgroundGradient)"/>

  <!-- Bouquet stems -->
  <path d="M180 420 L185 480 L190 480 L195 420" fill="#8B7355" stroke="#7d6b55" stroke-width="1"/>
  <path d="M200 420 L205 480 L210 480 L215 420" fill="#8B7355" stroke="#7d6b55" stroke-width="1"/>
  <path d="M220 420 L225 480 L230 480 L235 420" fill="#8B7355" stroke="#7d6b55" stroke-width="1"/>

  <!-- Ribbon wrap -->
  <ellipse cx="200" cy="400" rx="25" ry="8" fill="#d4a574"/>
  <ellipse cx="200" cy="395" rx="25" ry="6" fill="#ddb7ab"/>

  <!-- Main roses - center -->
  <circle cx="200" cy="200" r="25" fill="#f8f5f2" stroke="#d4a574" stroke-width="2"/>
  <circle cx="200" cy="200" r="20" fill="#faf9f7"/>
  <circle cx="200" cy="200" r="15" fill="#f5f2ee"/>
  <circle cx="200" cy="200" r="10" fill="#e8c4a0" opacity="0.6"/>

  <!-- Spiral pattern in center rose -->
  <path d="M200 190 Q210 195 205 205 Q195 210 195 200 Q200 190 205 195" fill="none" stroke="#d4a574" stroke-width="1" opacity="0.5"/>

  <!-- Surrounding roses -->
  <circle cx="160" cy="180" r="20" fill="#f8f5f2" stroke="#ddb7ab" stroke-width="2"/>
  <circle cx="160" cy="180" r="15" fill="#faf9f7"/>
  <circle cx="160" cy="180" r="10" fill="#f5f2ee"/>
  <circle cx="160" cy="180" r="6" fill="#ddb7ab" opacity="0.5"/>

  <circle cx="240" cy="180" r="20" fill="#f8f5f2" stroke="#ddb7ab" stroke-width="2"/>
  <circle cx="240" cy="180" r="15" fill="#faf9f7"/>
  <circle cx="240" cy="180" r="10" fill="#f5f2ee"/>
  <circle cx="240" cy="180" r="6" fill="#ddb7ab" opacity="0.5"/>

  <circle cx="180" cy="240" r="18" fill="#f8f5f2" stroke="#e8c4a0" stroke-width="2"/>
  <circle cx="180" cy="240" r="13" fill="#faf9f7"/>
  <circle cx="180" cy="240" r="8" fill="#f5f2ee"/>
  <circle cx="180" cy="240" r="5" fill="#e8c4a0" opacity="0.5"/>

  <circle cx="220" cy="240" r="18" fill="#f8f5f2" stroke="#e8c4a0" stroke-width="2"/>
  <circle cx="220" cy="240" r="13" fill="#faf9f7"/>
  <circle cx="220" cy="240" r="8" fill="#f5f2ee"/>
  <circle cx="220" cy="240" r="5" fill="#e8c4a0" opacity="0.5"/>

  <!-- Smaller accent flowers -->
  <circle cx="140" cy="220" r="12" fill="#f5f2ee" stroke="#d4a574" stroke-width="1"/>
  <circle cx="140" cy="220" r="8" fill="#faf9f7"/>
  <circle cx="140" cy="220" r="4" fill="#d4a574" opacity="0.4"/>

  <circle cx="260" cy="220" r="12" fill="#f5f2ee" stroke="#d4a574" stroke-width="1"/>
  <circle cx="260" cy="220" r="8" fill="#faf9f7"/>
  <circle cx="260" cy="220" r="4" fill="#d4a574" opacity="0.4"/>

  <circle cx="200" cy="280" r="15" fill="#f5f2ee" stroke="#ddb7ab" stroke-width="1"/>
  <circle cx="200" cy="280" r="10" fill="#faf9f7"/>
  <circle cx="200" cy="280" r="6" fill="#ddb7ab" opacity="0.4"/>

  <!-- Filler flowers -->
  <circle cx="170" cy="160" r="8" fill="#faf9f7" stroke="#e8c4a0" stroke-width="1"/>
  <circle cx="170" cy="160" r="5" fill="#f5f2ee"/>
  <circle cx="170" cy="160" r="2" fill="#e8c4a0" opacity="0.6"/>

  <circle cx="230" cy="160" r="8" fill="#faf9f7" stroke="#e8c4a0" stroke-width="1"/>
  <circle cx="230" cy="160" r="5" fill="#f5f2ee"/>
  <circle cx="230" cy="160" r="2" fill="#e8c4a0" opacity="0.6"/>

  <circle cx="150" cy="260" r="10" fill="#faf9f7" stroke="#ddb7ab" stroke-width="1"/>
  <circle cx="150" cy="260" r="6" fill="#f5f2ee"/>
  <circle cx="150" cy="260" r="3" fill="#ddb7ab" opacity="0.5"/>

  <circle cx="250" cy="260" r="10" fill="#faf9f7" stroke="#ddb7ab" stroke-width="1"/>
  <circle cx="250" cy="260" r="6" fill="#f5f2ee"/>
  <circle cx="250" cy="260" r="3" fill="#ddb7ab" opacity="0.5"/>

  <!-- Leaves and greenery -->
  <ellipse cx="130" cy="200" rx="8" ry="15" fill="#9a8470" opacity="0.6" transform="rotate(-20 130 200)"/>
  <ellipse cx="270" cy="200" rx="8" ry="15" fill="#9a8470" opacity="0.6" transform="rotate(20 270 200)"/>
  <ellipse cx="160" cy="300" rx="6" ry="12" fill="#9a8470" opacity="0.5" transform="rotate(-45 160 300)"/>
  <ellipse cx="240" cy="300" rx="6" ry="12" fill="#9a8470" opacity="0.5" transform="rotate(45 240 300)"/>
  <ellipse cx="200" cy="320" rx="10" ry="18" fill="#9a8470" opacity="0.6"/>

  <!-- Delicate baby's breath -->
  <circle cx="145" cy="195" r="2" fill="#faf9f7" opacity="0.8"/>
  <circle cx="150" cy="185" r="1.5" fill="#faf9f7" opacity="0.7"/>
  <circle cx="155" cy="200" r="2" fill="#faf9f7" opacity="0.8"/>

  <circle cx="255" cy="195" r="2" fill="#faf9f7" opacity="0.8"/>
  <circle cx="250" cy="185" r="1.5" fill="#faf9f7" opacity="0.7"/>
  <circle cx="245" cy="200" r="2" fill="#faf9f7" opacity="0.8"/>

  <circle cx="185" cy="320" r="1.5" fill="#faf9f7" opacity="0.7"/>
  <circle cx="190" cy="315" r="2" fill="#faf9f7" opacity="0.8"/>
  <circle cx="210" cy="315" r="2" fill="#faf9f7" opacity="0.8"/>
  <circle cx="215" cy="320" r="1.5" fill="#faf9f7" opacity="0.7"/>

  <!-- Ribbon tails -->
  <path d="M180 410 Q170 430 175 450 Q180 460 185 450 Q190 440 185 430 Q180 420 180 410" fill="#d4a574" opacity="0.8"/>
  <path d="M220 410 Q230 430 225 450 Q220 460 215 450 Q210 440 215 430 Q220 420 220 410" fill="#ddb7ab" opacity="0.8"/>

  <!-- Subtle sparkle effects -->
  <circle cx="190" cy="170" r="1" fill="#d4a574" opacity="0.8"/>
  <circle cx="210" cy="170" r="1" fill="#ddb7ab" opacity="0.8"/>
  <circle cx="200" cy="350" r="1" fill="#e8c4a0" opacity="0.8"/>
  <circle cx="170" cy="280" r="1" fill="#d4a574" opacity="0.6"/>
  <circle cx="230" cy="280" r="1" fill="#ddb7ab" opacity="0.6"/>

  <!-- Gradient definitions -->
  <defs>
    <linearGradient id="backgroundGradient" x1="0%" y1="0%" x2="100%" y2="100%">
      <stop offset="0%" style="stop-color:#faf9f7;stop-opacity:1" />
      <stop offset="50%" style="stop-color:#f5f2ee;stop-opacity:1" />
      <stop offset="100%" style="stop-color:#e8c4a0;stop-opacity:0.1" />
    </linearGradient>
  </defs>
</svg>
